<?xml version="1.0" encoding="UTF-8"?>
<svg id="Camada_1" xmlns="http://www.w3.org/2000/svg" version="1.1" viewBox="0 0 720 720">
  <!-- Generator: Adobe Illustrator 30.0.0, SVG Export Plug-In . SVG Version: 2.1.1 Build 123)  -->
  <defs>
    <style>
      .st0, .st1, .st2, .st3, .st4, .st5 {
        fill: none;
        stroke: #e20613;
      }

      .st0, .st1, .st2, .st5 {
        stroke-miterlimit: 10;
      }

      .st0, .st3 {
        stroke-width: 12.63px;
      }

      .st6 {
        fill: #fff;
      }

      .st1 {
        stroke-width: .84px;
      }

      .st2 {
        stroke-width: 15.16px;
      }

      .st3, .st4 {
        stroke-linecap: round;
        stroke-linejoin: round;
      }

      .st7 {
        fill: #e20613;
      }

      .st4 {
        stroke-width: 12.27px;
      }

      .st5 {
        stroke-width: 7.58px;
      }
    </style>
  </defs>
  <g>
    <path class="st6" d="M711.95,262.6c-3.66,14.02-7.33,28.04-11,42.06-.55,2.11-1.36,4.52-3.43,5.23-1.41.49-2.95-.02-4.36-.5-33.35-11.39-69.97-12.75-104.21-4.48-.02-.07-.03-.13-.04-.19-2.73-12.15-8.71-24.65-19.09-30.99-2.21-1.35-3.09-4.1-2.01-6.45,1.01-2.19,1.79-4.48,2.34-6.82,46.29-12.09,95.93-11.55,141.8,2.14Z"/>
    <path class="st6" d="M527.49,520.39c1.78-4.47,3.49-8.96,5.14-13.46h5.22c6.47,0,11.72-5.24,11.72-11.72v-42.96c3.34-13.21,6.01-26.05,7.96-38.24,8.68-3.12,17.57-5.43,26.74-5.53,14.46-.16,29.97,6.49,36.02,19.63,6.57,14.28.29,31.22-8.42,44.3-8.72,13.07-20.05,24.84-24.92,39.78-5.4,16.53-3.5,37.52-17.45,47.92-9.11,6.8-22.2,5.96-32.39.9-7.72-3.82-14.14-9.64-20.15-15.89,3.71-8.14,7.24-16.41,10.54-24.73Z"/>
    <path class="st6" d="M588.95,304.92c1.86,8.41,2.54,17.44-.6,25.48-4.68,11.97-15.23,31.45-27.17,32.03-.69-15.6-3.32-30.7-7.65-45.05,11.34-5.36,23.23-9.52,35.42-12.46Z"/>
    <path class="st6" d="M588.91,304.72c.02.07.03.13.04.19-12.19,2.94-24.08,7.1-35.42,12.46-4.75-15.78-11.55-30.65-20.1-44.33,7.54-3.24,15.24-6.12,23.05-8.62l10.36,4.78c1.02-2.89,2.04-5.79,3.06-8.68.08-.03.16-.04.24-.07-.56,2.34-1.33,4.63-2.34,6.82-1.08,2.35-.19,5.1,2.01,6.45,10.38,6.34,16.36,18.84,19.09,30.99Z"/>
    <path class="st6" d="M543.01,140.38c34.04,11.35,52.17,48.38,40.25,82.22-4.25,12.09-8.51,24.17-12.76,36.25,1.61-8.52.28-17.61-4.06-25.13-5.88-10.17-17.03-17.02-28.71-17.97-2.51-.21-4.42-2.29-4.56-4.82-.84-15.5-9.37-30.49-22.46-38.9-12.15-7.81-27.84-9.69-41.58-5.37-3.18,1-6.44-1.41-6.46-4.73-.08-12.42-7.77-24.68-18.4-31.61-12.85-8.4-29.01-10.19-44.32-9.06-20,1.47-41.09,8.71-52.94,24.5-.56.75-1.31,1.29-2.12,1.61-2.66-.77-5.33-1.55-7.99-2.32,0,0,0,0,0,0-6.11-3.16-12.85-5.05-19.76-5.74-29.05-8.47-58.11-16.92-87.16-25.38l-17.9-8.25,37.56-34.51c7.38-6.78,16.25-11.74,25.9-14.48l63.39-18c18.21-5.17,37.78-2.05,53.47,8.56l100.3,67.75c-3.21,4.06-5.11,9.09-5.11,14.53,0,13.47,11.66,24.38,26.04,24.38,10.94,0,20.3-6.31,24.16-15.25,1.75.58,3.5,1.17,5.25,1.75Z"/>
    <path class="st6" d="M344.88,147.37c.82-.32,1.56-.86,2.12-1.61,11.85-15.79,32.94-23.04,52.94-24.5,15.31-1.13,31.47.67,44.32,9.06,10.62,6.93,18.31,19.2,18.4,31.61.03,3.33,3.28,5.74,6.46,4.73,13.75-4.31,29.43-2.43,41.58,5.37,13.09,8.41,21.62,23.4,22.46,38.9.13,2.53,2.05,4.61,4.56,4.82,11.68.95,22.83,7.8,28.71,17.97,4.34,7.51,5.67,16.61,4.06,25.13-.19.56-.4,1.12-.59,1.68-4.51,1.18-8.98,2.48-13.42,3.9l-46.39-21.39c-31.36-32.76-74.67-53.98-122.93-56.67l-95.99-44.25c2.25-.72,4.53-1.33,6.85-1.82,6.24-1.31,12.74-1.68,19.09-1.02,6.59,1.91,13.17,3.83,19.76,5.74,0,0,0,0,0,0,1.13.58,2.24,1.21,3.33,1.89,1.45.89,3.19,1.03,4.67.44Z"/>
    <path class="st6" d="M569.91,260.53c.19-.56.4-1.11.59-1.68-.11.54-.22,1.07-.35,1.61-.08.03-.17.04-.24.07Z"/>
    <path class="st6" d="M569.91,260.53c-1.02,2.89-2.04,5.79-3.06,8.68l-10.36-4.78c4.44-1.42,8.91-2.72,13.42-3.9Z"/>
    <path class="st6" d="M196.22,415.93c-2.73-16.46-4.16-31.77-4.16-45.2,0-1.04,0-2.09.03-3.13l2.4,17.55c-.08,1.58-2.2-16.7-1.84-.29.22,9.52,38.72-6.55,52.05-30.77.21-.39.32-.82.32-1.25v-88.89c0-.89.45-1.72,1.22-2.19,12.55-7.64,120.3-68.6,257.95.05.87.44,1.42,1.33,1.42,2.31v91.36c0,.14,0,.29.03.43.56,3.14,10.48,39.23,48.74,33.18,1.13-.18-.78-1.62-.63-2.75l2.91-21.76c.18-1.36,1.42-2.35,2.78-2.21.57.06,1.15.08,1.73.04.13,2.75.19,5.52.19,8.31,0,12.9-1.32,27.55-3.84,43.29-5,1.79-9.93,3.85-14.81,5.9l-.03.06c-1.47-.67-3.12-1.04-4.84-1.04h-137.9c-6.47,0-11.72,5.24-11.72,11.71v12.76l-23.05-.31v-12.45c0-6.47-5.25-11.71-11.72-11.71h-137.9c-6.47,0-11.72,5.24-11.72,11.71v21.61c-3.16-12.52-5.73-24.7-7.64-36.33ZM523.41,407.96c.73-11.35-8.59-21.5-19.37-25.1-10.79-3.61-22.59-2.02-33.67.55-14.26,3.3-28.12,6.44-42.43,9.58-6.17,1.35-15.3,2.3-20.86,4.74-5.69,2.49-3.98,8.25-2.37,13.78,23.85-4.83,48-8.2,72.27-10.1,15.84-1.23,32.78-1.59,46.44,6.55ZM342.57,410.92c1.61-5.53,3.33-11.29-2.37-13.79-5.56-2.44-14.7-3.39-20.86-4.73-14.3-3.13-28.17-6.28-42.43-9.58-11.08-2.57-22.89-4.15-33.67-.55s-20.11,13.75-19.37,25.1c13.65-8.14,30.59-7.79,46.44-6.55,24.27,1.9,48.42,5.26,72.27,10.1Z"/>
    <path class="st6" d="M533.44,273.05c8.55,13.68,15.35,28.55,20.1,44.33,4.33,14.35,6.96,29.46,7.65,45.05-.57.03-1.15.02-1.73-.04-1.36-.14-2.6.84-2.78,2.21l-2.91,21.76c-.15,1.13,1.76,2.57.63,2.75-38.27,6.06-48.19-30.04-48.74-33.18-.03-.14-.03-.29-.03-.43v-91.36c0-.98-.56-1.87-1.42-2.31-137.65-68.65-245.4-7.69-257.95-.05-.77.47-1.22,1.3-1.22,2.19v88.89c0,.43-.11.86-.32,1.25-13.33,24.22-51.83,40.29-52.05,30.77-.36-16.42,1.76,1.87,1.84.29l-2.4-17.55c1.67-100.54,83.69-181.52,184.62-181.52,3.51,0,6.99.1,10.45.29l122.93,56.67c8.77,9.15,16.6,19.2,23.34,30Z"/>
    <path class="st6" d="M510.1,243.04l46.39,21.39c-7.82,2.5-15.52,5.37-23.05,8.62-6.74-10.8-14.57-20.86-23.34-30Z"/>
    <path class="st6" d="M557.53,414.02c-1.95,12.19-4.62,25.03-7.96,38.24v-21.61c0-4.74-2.82-8.82-6.87-10.66l.03-.06c4.88-2.06,9.8-4.11,14.81-5.9Z"/>
    <path class="st7" d="M549.57,454.48v40.74c0,6.48-5.25,11.72-11.72,11.72h-5.22c6.4-17.42,11.85-34.93,16.22-51.89.24-.19.48-.38.72-.56Z"/>
    <path class="st7" d="M549.57,452.26v2.22c-.24.19-.48.37-.72.56.24-.93.49-1.86.72-2.78Z"/>
    <path class="st7" d="M388.24,443.41v-12.76c0-6.47,5.25-11.71,11.72-11.71h137.9c1.73,0,3.37.37,4.84,1.04,4.05,1.84,6.87,5.92,6.87,10.66v21.61c-.23.92-.47,1.85-.72,2.78-4.37,16.96-9.82,34.48-16.22,51.89h-132.68c-6.47,0-11.72-5.24-11.72-11.72v-51.81ZM495.17,472.74c3.87-8.99.79-19.47-7.34-24.92l-9.01-6.03c-1.45-.98-1.97-2.85-1.25-4.43l5.2-11.25c1.12-2.43-.75-5.17-3.42-5.02-6.49.38-16.62.98-21.12,1.25-1.38.08-2.59.97-3.08,2.27l-8.55,22.19c-.61,1.59,0,3.39,1.46,4.29l14.63,8.96c1.53.94,2.12,2.9,1.35,4.53l-16.37,34.76c-1.1,2.34.61,5.05,3.2,5.05h28.32c1.42,0,2.7-.84,3.25-2.14l12.74-29.5Z"/>
    <path class="st6" d="M539.65,129.5c0,3.23-.67,6.31-1.89,9.13-3.82-1.27-7.66-2.55-11.49-3.82-5.53-1.84-10.8-4.44-15.63-7.71l-17.96-12.13c4.75-5.99,12.36-9.86,20.92-9.86,14.39,0,26.04,10.92,26.04,24.39Z"/>
    <path class="st6" d="M526.27,134.81c3.83,1.27,7.66,2.55,11.49,3.82-3.86,8.95-13.22,15.25-24.16,15.25-14.38,0-26.04-10.92-26.04-24.38,0-5.44,1.9-10.47,5.11-14.53l17.96,12.13c4.83,3.27,10.1,5.86,15.63,7.71Z"/>
    <path class="st6" d="M527.49,520.39c-3.3,8.32-6.82,16.59-10.54,24.73-33.86,74.29-84.13,137.98-140.24,137.98s-107.91-65.67-141.79-141.4c-3.16-7.06-6.17-14.22-9.02-21.41-1.76-4.44-3.46-8.89-5.1-13.36h132.67c6.47,0,11.72-5.24,11.72-11.72v-52.12l23.05.31v51.81c0,6.48,5.25,11.72,11.72,11.72h132.68c-1.65,4.5-3.36,8.99-5.14,13.46Z"/>
    <path class="st7" d="M504.03,382.86c10.78,3.61,20.11,13.75,19.37,25.1-13.65-8.14-30.59-7.78-46.44-6.55-24.27,1.9-48.42,5.27-72.27,10.1-1.61-5.53-3.33-11.29,2.37-13.78,5.56-2.44,14.7-3.39,20.86-4.74,14.3-3.13,28.17-6.28,42.43-9.58,11.08-2.57,22.89-4.15,33.67-.55Z"/>
    <path class="st6" d="M510.1,243.04l-122.93-56.67c48.26,2.69,91.57,23.91,122.93,56.67Z"/>
    <path class="st6" d="M487.83,447.83c8.14,5.45,11.22,15.93,7.34,24.92l-12.74,29.5c-.56,1.3-1.84,2.14-3.25,2.14h-28.32c-2.59,0-4.3-2.7-3.2-5.05l16.37-34.76c.77-1.63.19-3.59-1.35-4.53l-14.63-8.96c-1.46-.89-2.07-2.7-1.46-4.29l8.55-22.19c.5-1.3,1.7-2.18,3.08-2.27,4.5-.27,14.62-.87,21.12-1.25,2.67-.15,4.54,2.59,3.42,5.02l-5.2,11.25c-.72,1.58-.2,3.45,1.25,4.43l9.01,6.03Z"/>
    <path class="st6" d="M291.18,142.13l95.99,44.25c-3.46-.19-6.94-.29-10.45-.29-100.93,0-182.95,80.98-184.62,181.52l-.33-2.38-.86-6.27c.04-.9-.41-1.75-1.16-2.25t-.02,0c-11.24-7.52-21.74-30.61-25.45-43.01-2.25-7.52-4.09-15.25-4.09-23.1-.03-21.76,15.94-42.38,36.7-48.47,2.54-.74,4.09-3.34,3.49-5.9-3.05-12.97-1.07-27.1,5.56-38.67,7.45-13.01,20.67-22.57,35.36-25.58,2.48-.51,5.04-.85,7.34-1.91,2.94-1.36,5.23-3.77,7.55-6.02,9.94-9.7,21.83-17.71,35.01-21.91Z"/>
    <path class="st7" d="M365.19,443.1v52.12c0,6.48-5.25,11.72-11.72,11.72h-132.67c-5.85-15.92-10.92-31.92-15.09-47.51-.64-2.4-1.26-4.79-1.86-7.17v-21.61c0-6.47,5.25-11.71,11.72-11.71h137.9c6.47,0,11.72,5.24,11.72,11.71v12.45ZM298.73,472.74c3.87-8.99.79-19.47-7.34-24.92l-9.01-6.03c-1.44-.98-1.97-2.85-1.24-4.43l5.19-11.25c1.12-2.43-.75-5.17-3.42-5.02-6.49.38-16.62.98-21.12,1.25-1.38.08-2.59.97-3.08,2.27l-8.55,22.19c-.61,1.59,0,3.39,1.46,4.29l14.63,8.96c1.54.94,2.12,2.9,1.36,4.53l-16.37,34.76c-1.1,2.34.61,5.05,3.2,5.05h28.33c1.41,0,2.69-.84,3.25-2.14l12.73-29.5Z"/>
    <path class="st6" d="M336.89,145.04c2.66.77,5.33,1.55,7.99,2.32-1.47.59-3.22.45-4.67-.44-1.09-.67-2.2-1.31-3.33-1.89Z"/>
    <path class="st7" d="M340.21,397.13c5.69,2.5,3.98,8.25,2.37,13.79-23.85-4.83-48-8.2-72.27-10.1-15.84-1.24-32.78-1.59-46.44,6.55-.73-11.35,8.59-21.5,19.37-25.1s22.59-2.02,33.67.55c14.27,3.3,28.13,6.44,42.43,9.58,6.17,1.35,15.3,2.29,20.86,4.73Z"/>
    <path class="st6" d="M336.88,145.03c-6.59-1.91-13.17-3.83-19.76-5.74,6.91.69,13.65,2.59,19.76,5.74Z"/>
    <path class="st6" d="M229.96,113.91c29.05,8.46,58.11,16.91,87.16,25.38-6.36-.66-12.85-.29-19.09,1.02-2.32.49-4.6,1.09-6.85,1.82l-61.22-28.22Z"/>
    <path class="st6" d="M291.39,447.83c8.14,5.45,11.22,15.93,7.34,24.92l-12.73,29.5c-.56,1.3-1.84,2.14-3.25,2.14h-28.33c-2.59,0-4.3-2.7-3.2-5.05l16.37-34.76c.77-1.63.19-3.59-1.36-4.53l-14.63-8.96c-1.46-.89-2.07-2.7-1.46-4.29l8.55-22.19c.5-1.3,1.7-2.18,3.08-2.27,4.5-.27,14.62-.87,21.12-1.25,2.67-.15,4.54,2.59,3.42,5.02l-5.19,11.25c-.73,1.58-.2,3.45,1.24,4.43l9.01,6.03Z"/>
    <path class="st6" d="M229.96,113.91l61.22,28.22c-13.17,4.2-25.07,12.2-35.01,21.91-2.32,2.26-4.61,4.67-7.55,6.02-2.31,1.06-4.86,1.4-7.34,1.91-14.69,3.01-27.91,12.58-35.36,25.58-6.63,11.57-8.61,25.7-5.56,38.67.6,2.57-.95,5.16-3.49,5.9-20.76,6.09-36.72,26.7-36.7,48.47,0,7.85,1.84,15.58,4.09,23.1,3.71,12.4,14.22,35.49,25.45,43.01t.02,0c.75.5,1.2,1.35,1.16,2.25l.86,6.27-1.12.15-140.74-67.24C11.81,261.87.75,205.47,22.22,158.39c20.36-44.62,66.28-72.85,116.02-71.19,30.58,8.9,61.15,17.81,91.73,26.71Z"/>
    <path class="st6" d="M203.86,457.8v37.41c0,6.48,5.25,11.72,11.72,11.72h5.23c1.63,4.46,3.34,8.92,5.1,13.36,2.86,7.19,5.86,14.35,9.02,21.41-6.94,7.48-14.25,14.8-23.36,19.31-10.19,5.05-23.27,5.9-32.39-.9-13.95-10.39-12.04-31.38-17.45-47.92-4.88-14.94-16.21-26.71-24.92-39.78-8.72-13.08-14.99-30.02-8.42-44.3,6.05-13.13,21.55-19.79,36.02-19.63,10.98.12,21.55,3.41,31.82,7.45,1.91,11.62,4.48,23.81,7.64,36.33v5.54Z"/>
    <path class="st7" d="M220.8,506.93h-5.23c-6.47,0-11.72-5.24-11.72-11.72v-37.41c.62.53,1.24,1.07,1.86,1.63,4.17,15.58,9.23,31.59,15.09,47.51Z"/>
    <path class="st7" d="M205.72,459.43c-.62-.56-1.24-1.09-1.86-1.63v-5.54c.6,2.38,1.22,4.77,1.86,7.17Z"/>
  </g>
  <g>
    <path class="st0" d="M570.15,260.46c46.29-12.09,95.93-11.55,141.8,2.14-3.66,14.02-7.33,28.04-11,42.06-.55,2.11-1.36,4.52-3.43,5.23-1.41.49-2.95-.02-4.36-.5-33.35-11.39-69.97-12.75-104.21-4.48"/>
    <path class="st4" d="M203.86,457.8c-6.91-5.92-14.43-10.92-22.95-14.07-7.93-2.93-18.19-3.53-23.53,3.02"/>
    <path class="st4" d="M180.76,467.22c-2.69,3.22-3.74,7.51-3.94,11.7-.72,14.49,8.37,28.49,21.07,35.49,8.49,4.68,18.29,6.47,28.01,5.88"/>
    <path class="st4" d="M549.57,454.48c5.78-4.46,11.99-8.2,18.88-10.75,7.93-2.93,18.19-3.53,23.53,3.02"/>
    <path class="st4" d="M568.59,467.22c2.68,3.22,3.74,7.51,3.94,11.7.71,14.49-8.38,28.49-21.07,35.49-7.31,4.03-15.6,5.92-23.96,5.98"/>
    <path class="st0" d="M557.53,414.02c8.68-3.12,17.57-5.43,26.74-5.53,14.46-.16,29.97,6.49,36.02,19.63,6.57,14.28.29,31.22-8.42,44.3-8.72,13.07-20.05,24.84-24.92,39.78-5.4,16.53-3.5,37.52-17.45,47.92-9.11,6.8-22.2,5.96-32.39.9-7.72-3.82-14.14-9.64-20.15-15.89"/>
    <path class="st0" d="M492.68,114.97c4.75-5.99,12.36-9.86,20.92-9.86,14.39,0,26.04,10.92,26.04,24.39,0,3.23-.67,6.31-1.89,9.13"/>
    <path class="st0" d="M196.22,415.93c-10.28-4.03-20.85-7.33-31.82-7.45-14.46-.16-29.97,6.49-36.02,19.63-6.57,14.28-.29,31.22,8.42,44.3,8.71,13.07,20.04,24.84,24.92,39.78,5.41,16.53,3.5,37.52,17.45,47.92,9.12,6.8,22.2,5.96,32.39.9,9.11-4.51,16.42-11.83,23.36-19.31"/>
    <path class="st0" d="M212.06,105.66l37.56-34.51c7.38-6.78,16.25-11.74,25.9-14.48l63.39-18c18.21-5.17,37.78-2.05,53.47,8.56l100.3,67.75,17.96,12.13c4.83,3.27,10.1,5.86,15.63,7.71,3.83,1.27,7.66,2.55,11.49,3.82,1.75.58,3.5,1.17,5.25,1.75,34.04,11.35,52.17,48.38,40.25,82.22-4.25,12.09-8.51,24.17-12.76,36.25"/>
    <path class="st0" d="M203.86,452.26c-3.16-12.52-5.73-24.7-7.64-36.33-2.73-16.46-4.16-31.77-4.16-45.2,0-1.04,0-2.09.03-3.13"/>
    <path class="st0" d="M532.63,506.93c-1.65,4.5-3.36,8.99-5.14,13.46-3.3,8.32-6.82,16.59-10.54,24.73-33.86,74.29-84.13,137.98-140.24,137.98s-107.91-65.67-141.79-141.4c-3.16-7.06-6.17-14.22-9.02-21.41-1.76-4.44-3.46-8.89-5.1-13.36"/>
    <path class="st0" d="M561.18,362.43c.13,2.75.19,5.52.19,8.31,0,12.9-1.32,27.55-3.84,43.29-1.95,12.19-4.62,25.03-7.96,38.24"/>
    <path class="st0" d="M336.89,145.04c2.66.77,5.33,1.55,7.99,2.32"/>
    <path class="st0" d="M190.64,365.38l-140.74-67.24C11.81,261.87.75,205.47,22.22,158.39c20.36-44.62,66.28-72.85,116.02-71.19,30.58,8.9,61.15,17.81,91.73,26.71,29.05,8.46,58.11,16.91,87.16,25.38"/>
    <path class="st0" d="M192.09,367.6l2.4,17.55c-.08,1.58-2.2-16.7-1.84-.29.22,9.52,38.72-6.55,52.05-30.77.21-.39.32-.82.32-1.25v-88.89c0-.89.45-1.72,1.22-2.19,12.55-7.64,120.3-68.6,257.95.05.87.44,1.42,1.33,1.42,2.31v91.36c0,.14,0,.29.03.43.56,3.14,10.48,39.23,48.74,33.18,1.13-.18-.78-1.62-.63-2.75l2.91-21.76c.18-1.36,1.42-2.35,2.78-2.21.57.06,1.15.08,1.73.04,11.94-.58,22.49-20.06,27.17-32.03,3.14-8.04,2.46-17.06.6-25.48-.02-.07-.03-.13-.04-.19-2.73-12.15-8.71-24.65-19.09-30.99-2.21-1.35-3.09-4.1-2.01-6.45,1.01-2.19,1.79-4.48,2.34-6.82.13-.54.24-1.07.35-1.61,1.61-8.52.28-17.61-4.06-25.13-5.88-10.17-17.03-17.02-28.71-17.97-2.51-.21-4.42-2.29-4.56-4.82-.84-15.5-9.37-30.49-22.46-38.9-12.15-7.81-27.84-9.69-41.58-5.37-3.18,1-6.44-1.41-6.46-4.73-.08-12.42-7.77-24.68-18.4-31.61-12.85-8.4-29.01-10.19-44.32-9.06-20,1.47-41.09,8.71-52.94,24.5-.56.75-1.31,1.29-2.12,1.61-1.47.59-3.22.45-4.67-.44-1.09-.67-2.2-1.31-3.33-1.89,0,0,0,0,0,0-6.11-3.16-12.85-5.05-19.76-5.74-6.36-.66-12.85-.29-19.09,1.02-2.32.49-4.6,1.09-6.85,1.82-13.17,4.2-25.07,12.2-35.01,21.91-2.32,2.26-4.61,4.67-7.55,6.02-2.31,1.06-4.86,1.4-7.34,1.91-14.69,3.01-27.91,12.58-35.36,25.58-6.63,11.57-8.61,25.7-5.56,38.67.6,2.57-.95,5.16-3.49,5.9-20.76,6.09-36.72,26.7-36.7,48.47,0,7.85,1.84,15.58,4.09,23.1,3.71,12.4,14.22,35.49,25.45,43.01t.02,0c.75.5,1.2,1.35,1.16,2.25l.86,6.27.33,2.38Z"/>
    <path class="st5" d="M365.19,443.1v52.12c0,6.48-5.25,11.72-11.72,11.72h-137.9c-6.47,0-11.72-5.24-11.72-11.72v-64.57c0-6.47,5.25-11.71,11.72-11.71h137.9c6.47,0,11.72,5.24,11.72,11.71v12.45Z"/>
    <path class="st5" d="M549.57,454.48v40.74c0,6.48-5.25,11.72-11.72,11.72h-137.9c-6.47,0-11.72-5.24-11.72-11.72v-64.57c0-6.47,5.25-11.71,11.72-11.71h137.9c1.73,0,3.37.37,4.84,1.04,4.05,1.84,6.87,5.92,6.87,10.66v23.83Z"/>
    <polyline class="st2" points="364.55 443.09 365.19 443.1 388.24 443.41 394.33 443.49"/>
    <path class="st1" d="M404.7,411.5c23.85-4.83,48-8.2,72.27-10.1,15.84-1.23,32.78-1.59,46.44,6.55.73-11.35-8.59-21.5-19.37-25.1-10.79-3.61-22.59-2.02-33.67.55-14.26,3.3-28.12,6.44-42.43,9.58-6.17,1.35-15.3,2.3-20.86,4.74-5.69,2.49-3.98,8.25-2.37,13.78Z"/>
    <path class="st1" d="M342.57,410.92c-23.85-4.83-48-8.2-72.27-10.1-15.84-1.24-32.78-1.59-46.44,6.55-.73-11.35,8.59-21.5,19.37-25.1s22.59-2.02,33.67.55c14.27,3.3,28.13,6.44,42.43,9.58,6.17,1.35,15.3,2.29,20.86,4.73,5.69,2.5,3.98,8.25,2.37,13.79Z"/>
    <path class="st3" d="M400.78,531.8c-11.4-11.27-27.66-12.96-37.84-5.61-9.31,6.73-10.17,18.61-10.28,20.56"/>
    <path class="st3" d="M362.23,609.34c2.88-6.58,9.85-19.77,24.47-28.7,31.7-19.36,68.09.43,69.75,1.37"/>
    <path class="st1" d="M258.71,424.61l-8.55,22.19c-.61,1.59,0,3.39,1.46,4.29l14.63,8.96c1.54.94,2.12,2.9,1.36,4.53l-16.37,34.76c-1.1,2.34.61,5.05,3.2,5.05h28.33c1.41,0,2.69-.84,3.25-2.14l12.73-29.5c3.87-8.99.79-19.47-7.34-24.92l-9.01-6.03c-1.44-.98-1.97-2.85-1.24-4.43l5.19-11.25c1.12-2.43-.75-5.17-3.42-5.02-6.49.38-16.62.98-21.12,1.25-1.38.08-2.59.97-3.08,2.27Z"/>
    <path class="st1" d="M455.15,424.61l-8.55,22.19c-.61,1.59,0,3.39,1.46,4.29l14.63,8.96c1.53.94,2.12,2.9,1.35,4.53l-16.37,34.76c-1.1,2.34.61,5.05,3.2,5.05h28.32c1.42,0,2.7-.84,3.25-2.14l12.74-29.5c3.87-8.99.79-19.47-7.34-24.92l-9.01-6.03c-1.45-.98-1.97-2.85-1.25-4.43l5.2-11.25c1.12-2.43-.75-5.17-3.42-5.02-6.49.38-16.62.98-21.12,1.25-1.38.08-2.59.97-3.08,2.27Z"/>
  </g>
</svg>